<svg version="1.1" id="Layer_1" xmlns="http://www.w3.org/2000/svg" xmlns:xlink="http://www.w3.org/1999/xlink" x="0px" y="0px" width="32px" height="32px" viewBox="0 0 32 32" enable-background="new 0 0 32 32" xml:space="preserve">
  <g id="main" style="opacity: 0.1">
    <g id="icon">
      <path d="M16.58,9.077L16.6,9.08L17.58,9.432L18.46,9.928L19.24,10.55L19.9,11.28L25.67,6.584L24.98,5.779L24.22,5.029L23.41,4.336L22.54,3.705L21.61,3.142L20.63,2.649L19.6,2.233L18.52,1.896L18.49,1.889zM14.06,10.74L13.23,11L12.48,11.4L11.82,11.95L11.28,12.6L10.87,13.35L10.61,14.19L10.52,15.08L10.61,15.97L10.87,16.81L11.28,17.56L11.82,18.21L12.48,18.76L13.23,19.16L14.06,19.42L14.96,19.51L15.85,19.42L16.68,19.16L17.43,18.76L18.09,18.21L18.63,17.56L19.04,16.81L19.3,15.97L19.39,15.08L19.3,14.19L19.04,13.35L18.63,12.6L18.09,11.95L17.43,11.4L16.68,11L15.85,10.74L14.96,10.65zM15.51,12.4L16.02,12.56L16.48,12.82L16.89,13.15L17.22,13.55L17.47,14.02L17.63,14.53L17.69,15.08L17.63,15.63L17.47,16.14L17.22,16.61L16.89,17.01L16.48,17.34L16.02,17.6L15.51,17.76L14.96,17.81L14.41,17.76L13.89,17.6L13.43,17.34L13.03,17.01L12.69,16.61L12.44,16.14L12.28,15.63L12.23,15.08L12.28,14.53L12.44,14.02L12.69,13.55L13.03,13.15L13.43,12.82L13.89,12.56L14.41,12.4L14.96,12.35zM14.62,13.24L14.27,13.35L13.96,13.52L13.68,13.75L13.46,14.02L13.29,14.34L13.18,14.68L13.14,15.06L13.18,15.43L13.29,15.78L13.46,16.09L13.68,16.36L13.96,16.59L14.27,16.76L14.62,16.87L14.99,16.91L15.37,16.87L15.71,16.76L16.03,16.59L16.3,16.37L16.53,16.09L16.7,15.78L16.81,15.43L16.84,15.06L16.81,14.68L16.7,14.34L16.53,14.02L16.3,13.75L16.03,13.52L15.71,13.35L15.37,13.24L14.99,13.21zM4.411,23.61L5.083,24.38L5.813,25.1L6.599,25.77L7.44,26.38L8.332,26.93L9.274,27.41L10.26,27.82L11.3,28.15L13.32,20.99L12.4,20.66L11.57,20.19L10.83,19.61L10.19,18.93zz" fill="#FFFFFF"/>
      <path d="M13.45,0.1504L11.96,0.3773L10.53,0.7467L9.151,1.25L7.841,1.881L6.606,2.632L5.452,3.494L4.388,4.461L3.421,5.525L2.559,6.679L1.808,7.914L1.177,9.224L0.6736,10.6L0.3045,12.04L0.07734,13.52L0,15.06L0.07734,16.59L0.3045,18.08L0.6736,19.51L1.177,20.89L1.808,22.2L2.559,23.43L3.421,24.59L4.388,25.65L5.452,26.62L6.606,27.48L7.841,28.23L9.151,28.86L10.53,29.37L11.96,29.73L13.45,29.96L14.98,30.04L16.52,29.96L18,29.73L18.38,29.64L18.01,29.1L17.54,28.16L17.19,27.16L16.97,26.1L16.9,25L16.94,24.17L17.06,23.37L17.26,22.59L17.54,21.85L17.88,21.14L18.28,20.47L18.75,19.85L19.27,19.27L19.85,18.75L20.47,18.28L21.14,17.88L21.85,17.54L22.59,17.26L23.37,17.06L24.17,16.94L25,16.9L26.1,16.97L27.16,17.19L28.16,17.54L29.1,18.01L29.59,18.35L29.66,18.08L29.89,16.59L29.97,15.06L29.89,13.52L29.66,12.04L29.29,10.6L28.79,9.224L28.16,7.914L27.41,6.679L26.55,5.525L25.58,4.461L24.51,3.494L23.36,2.632L22.13,1.881L20.82,1.25L19.44,0.7467L18,0.3773L16.52,0.1504L14.98,0.07305zM18.52,1.896L19.6,2.233L20.63,2.649L21.61,3.142L22.54,3.705L23.41,4.336L24.22,5.029L24.98,5.779L25.67,6.584L19.9,11.28L19.24,10.55L18.46,9.928L17.58,9.432L16.6,9.08L16.58,9.077L18.49,1.889zM15.85,10.74L16.68,11L17.44,11.4L18.09,11.95L18.63,12.6L19.04,13.35L19.3,14.19L19.39,15.08L19.3,15.97L19.04,16.81L18.63,17.56L18.09,18.21L17.44,18.76L16.68,19.16L15.85,19.42L14.96,19.51L14.06,19.42L13.23,19.16L12.48,18.76L11.82,18.21L11.28,17.56L10.87,16.81L10.61,15.97L10.52,15.08L10.61,14.19L10.87,13.35L11.28,12.6L11.82,11.95L12.48,11.4L13.23,11L14.06,10.74L14.96,10.65zM14.41,12.4L13.89,12.56L13.43,12.81L13.03,13.15L12.69,13.55L12.44,14.02L12.28,14.53L12.23,15.08L12.28,15.63L12.44,16.14L12.69,16.61L13.03,17.01L13.43,17.34L13.89,17.6L14.41,17.75L14.96,17.81L15.51,17.75L16.02,17.6L16.48,17.34L16.89,17.01L17.22,16.61L17.47,16.14L17.63,15.63L17.69,15.08L17.63,14.53L17.47,14.02L17.22,13.55L16.89,13.15L16.48,12.81L16.02,12.56L15.51,12.4L14.96,12.35zM15.37,13.24L15.71,13.35L16.03,13.52L16.3,13.75L16.53,14.02L16.7,14.34L16.81,14.68L16.84,15.06L16.81,15.43L16.7,15.78L16.53,16.09L16.3,16.37L16.03,16.59L15.71,16.76L15.37,16.87L14.99,16.91L14.62,16.87L14.27,16.76L13.96,16.59L13.68,16.37L13.46,16.09L13.29,15.78L13.18,15.43L13.14,15.06L13.18,14.68L13.29,14.34L13.46,14.02L13.68,13.75L13.96,13.52L14.27,13.35L14.62,13.24L14.99,13.21zM10.83,19.61L11.57,20.19L12.4,20.66L13.32,21L11.3,28.15L10.26,27.82L9.274,27.41L8.333,26.93L7.441,26.38L6.6,25.77L5.814,25.1L5.084,24.38L4.412,23.61L10.19,18.93zz" fill="#797979"/>
    </g>
    <g id="overlay">
      <path d="M25,18c-3.866,0,-7,3.134,-7,7c0,3.866,3.134,7,7,7s7,-3.134,7,-7C32,21.134,28.866,18,25,18zM26,29.8c0,0.1105,-0.0895,0.2,-0.2,0.2h-1.6c-0.1105,0,-0.2,-0.0895,-0.2,-0.2v-6.6c0,-0.1105,0.0895,-0.2,0.2,-0.2h1.6c0.1105,0,0.2,0.0895,0.2,0.2V29.8zM26,21.5c0,0.1105,-0.0895,0.2,-0.2,0.2h-1.6c-0.1105,0,-0.2,-0.0895,-0.2,-0.2v-1.3c0,-0.1105,0.0895,-0.2,0.2,-0.2h1.6c0.1105,0,0.2,0.0895,0.2,0.2V21.5z" fill-rule="evenodd" fill="#217346"/>
      <path d="M26,20.2c0,-0.1105,-0.0895,-0.2,-0.2,-0.2h-1.6c-0.1105,0,-0.2,0.0895,-0.2,0.2v1.3c0,0.1105,0.0895,0.2,0.2,0.2h1.6c0.1105,0,0.2,-0.0895,0.2,-0.2V20.2z" fill="#FFFFFF"/>
      <path d="M26,23.2c0,-0.1105,-0.0895,-0.2,-0.2,-0.2h-1.6c-0.1105,0,-0.2,0.0895,-0.2,0.2v6.6c0,0.1105,0.0895,0.2,0.2,0.2h1.6c0.1105,0,0.2,-0.0895,0.2,-0.2V23.2z" fill="#FFFFFF"/>
    </g>
  </g>
</svg>